<svg id="Layer_1" data-name="Layer 1" xmlns="http://www.w3.org/2000/svg" viewBox="0 0 103.28 100.01"><title>decorativeIcon</title><path d="M143.3,69.88v18.2a13.68,13.68,0,0,1-.88,1.08Q136.71,94.88,131,100.6a13.64,13.64,0,0,1-1.07.88H111.7c-.36-.29-.75-.56-1.07-.88q-5.73-5.71-11.45-11.45c-.33-.33-.59-.71-.88-1.07q0-9.1,0-18.2a13.8,13.8,0,0,1,.88-1.07q5.71-5.73,11.45-11.45a13.76,13.76,0,0,1,1.07-.88h18.2a11.74,11.74,0,0,1,1,.81q5.8,5.78,11.59,11.59A11.78,11.78,0,0,1,143.3,69.88ZM140.5,79c0-2.43,0-4.87,0-7.3a2.34,2.34,0,0,0-.58-1.46Q134.74,65,129.5,59.85a2,2,0,0,0-1.28-.55q-7.4-.06-14.8,0a2.17,2.17,0,0,0-1.36.58q-5.2,5.12-10.32,10.32a2.3,2.3,0,0,0-.62,1.44q-.07,7.3,0,14.6a2.3,2.3,0,0,0,.59,1.46Q106.86,93,112.1,98.1a2.17,2.17,0,0,0,1.37.55c4.87,0,9.73,0,14.6,0a2,2,0,0,0,1.56-.67q5.07-5.11,10.18-10.18a2.06,2.06,0,0,0,.7-1.64C140.47,83.8,140.5,81.4,140.5,79Z" transform="translate(-72 -30.5)" style="fill:#f58f7c"/><path d="M104,40V53a9.73,9.73,0,0,1-.63.76l-8.14,8.14a9.7,9.7,0,0,1-.76.62H81.53c-.26-.21-.53-.4-.76-.63l-8.14-8.14c-.23-.23-.42-.51-.63-.76Q72,46.5,72,40a9.82,9.82,0,0,1,.63-.76l8.14-8.14a9.79,9.79,0,0,1,.76-.63H94.47a8.35,8.35,0,0,1,.71.57l8.24,8.24A8.38,8.38,0,0,1,104,40Zm-2,6.49c0-1.73,0-3.46,0-5.19a1.66,1.66,0,0,0-.42-1q-3.66-3.73-7.39-7.39a1.44,1.44,0,0,0-.91-.39q-5.26,0-10.52,0a1.54,1.54,0,0,0-1,.41q-3.7,3.64-7.34,7.34a1.64,1.64,0,0,0-.44,1q0,5.19,0,10.38a1.64,1.64,0,0,0,.42,1q3.66,3.73,7.39,7.39a1.54,1.54,0,0,0,1,.39c3.46,0,6.92,0,10.38,0A1.41,1.41,0,0,0,94.28,60q3.6-3.64,7.24-7.24a1.47,1.47,0,0,0,.5-1.17C102,49.93,102,48.22,102,46.52Z" transform="translate(-72 -30.5)" style="fill:#d6d6d6"/><path d="M175.28,108V121a9.73,9.73,0,0,1-.63.76l-8.14,8.14a9.7,9.7,0,0,1-.76.62H152.81c-.26-.21-.53-.4-.76-.63l-8.14-8.14c-.23-.23-.42-.51-.63-.76q0-6.47,0-12.94a9.82,9.82,0,0,1,.63-.76L152,99.13a9.79,9.79,0,0,1,.76-.63h12.94a8.35,8.35,0,0,1,.71.57l8.24,8.24A8.38,8.38,0,0,1,175.28,108Zm-2,6.49c0-1.73,0-3.46,0-5.19a1.66,1.66,0,0,0-.42-1q-3.66-3.73-7.39-7.39a1.44,1.44,0,0,0-.91-.39q-5.26,0-10.52,0a1.54,1.54,0,0,0-1,.41q-3.7,3.64-7.34,7.34a1.64,1.64,0,0,0-.44,1q0,5.19,0,10.38a1.64,1.64,0,0,0,.42,1q3.66,3.73,7.39,7.39a1.54,1.54,0,0,0,1,.39c3.46,0,6.92,0,10.38,0a1.41,1.41,0,0,0,1.11-.47q3.6-3.64,7.24-7.24a1.47,1.47,0,0,0,.5-1.17C173.27,117.94,173.29,116.23,173.29,114.53Z" transform="translate(-72 -30.5)" style="fill:#4f4f51"/><path d="M174.89,72.75V83a7.69,7.69,0,0,1-.49.6L168,90a7.66,7.66,0,0,1-.6.49H157.14c-.2-.16-.42-.31-.6-.49l-6.43-6.43c-.18-.18-.33-.4-.5-.6q0-5.11,0-10.22a7.75,7.75,0,0,1,.49-.6l6.43-6.43a7.73,7.73,0,0,1,.6-.49h10.22a6.59,6.59,0,0,1,.56.45l6.51,6.51A6.62,6.62,0,0,1,174.89,72.75Zm-1.57,5.13c0-1.37,0-2.73,0-4.1A1.31,1.31,0,0,0,173,73q-2.89-2.95-5.83-5.84a1.14,1.14,0,0,0-.72-.31q-4.16,0-8.31,0a1.22,1.22,0,0,0-.76.33q-2.92,2.88-5.8,5.8a1.29,1.29,0,0,0-.35.81q0,4.1,0,8.2a1.29,1.29,0,0,0,.33.82q2.89,2.95,5.84,5.84a1.22,1.22,0,0,0,.77.31c2.73,0,5.47,0,8.2,0a1.12,1.12,0,0,0,.87-.38q2.85-2.87,5.72-5.72a1.16,1.16,0,0,0,.39-.92C173.3,80.57,173.32,79.22,173.32,77.88Z" transform="translate(-72 -30.5)" style="fill:#f2c4ce"/></svg>