<svg id="Layer_1" data-name="Layer 1" xmlns="http://www.w3.org/2000/svg" viewBox="0 0 182.34 157.86"><title>white-paw</title><path d="M109.64,106.35c16.17.07,30.67,4.87,41.49,17.16,9,10.18,16.05,21.71,17,35.9A32.55,32.55,0,0,1,164.69,177c-5.74,10.92-16.27,14.2-27,8.21-6.33-3.53-12.27-7.78-18.74-11a21.48,21.48,0,0,0-18.36-.31c-5.26,2.27-10,5.71-15.13,8.32-3.95,2-8,4.23-12.25,5.14-8,1.7-15.69-3.19-19.61-11.54a32.43,32.43,0,0,1-1-25c4.71-13.52,12-25.56,23.76-34.29C86.17,109.16,97.5,106.32,109.64,106.35Zm.68,8.45c-2.74.2-5.35.27-7.93.61C90.62,117,80.47,121.73,73,131.31c-2.5,3.22-4.64,6.72-6.84,10.16C61.09,149.44,58,158,60,167.6c1.69,8.09,7.57,15.59,18.53,8.73a172.42,172.42,0,0,1,16-9.14c10.32-5,20.83-5,31,.55,5.46,3,10.57,6.58,15.94,9.73,7.11,4.18,13.2,1.95,16.38-5.7,2-4.81,2.11-9.75,1.46-14.79-1.21-9.4-6.36-17.06-11.64-24.4C138.49,119.95,125.14,115.52,110.32,114.8Z" transform="translate(-19.87 -30.79)" style="fill:#fff;stroke:#fff;stroke-miterlimit:10"/><path d="M108.2,67.41a39.88,39.88,0,0,1-8.84,25.5C89,105.53,71.74,104.59,63.06,90.73c-10-16-10-32.36,0-48.36,9.24-14.79,28.4-14.67,38-.12C105.89,49.62,108.16,57.7,108.2,67.41Zm-8.5-.75c-.19-7.9-2-15.26-7.27-21.45-6-7.12-14.87-7.05-20.92.08a29.53,29.53,0,0,0-6.72,15.66C63.52,70.7,65,79.89,71.52,87.7,77.65,95,86.41,95,92.58,87.63,97.67,81.57,99.45,74.38,99.7,66.66Z" transform="translate(-19.87 -30.79)" style="fill:#fff;stroke:#fff;stroke-miterlimit:10"/><path d="M164.11,62.7c0,13.45-2.52,22.49-8.79,30.14-10.37,12.67-27.59,11.82-36.31-2-10.12-16.06-10.13-32.55,0-48.6,9.29-14.73,28.54-14.47,38,.2C161.81,49.85,164,57.38,164.11,62.7Zm-43.86,2.51c0,7.69,1.47,13.76,4.79,19.34,6.76,11.36,19.1,11.43,25.66-.06a35.7,35.7,0,0,0,4-10.59c2.05-10.39.55-20.21-6.4-28.64-5.45-6.61-13-7.29-19.29-1.55C122.41,49.77,120.56,57.85,120.25,65.21Z" transform="translate(-19.87 -30.79)" style="fill:#fff;stroke:#fff;stroke-miterlimit:10"/><path d="M61.69,111.49c-.17,7.17-1.82,14.35-7,20.21-8.38,9.43-20.11,9-28.07-.8-8.64-10.68-8.23-30.31.84-40.51,8.61-9.69,21.7-8.68,28.88,2.17C60,98.17,61.57,104.38,61.69,111.49ZM29,109.37c-.52,6.18,1.61,13.13,5,16.94,4.27,4.81,10,4.74,14.17-.18,6.49-7.69,6.55-22.2.11-29.91C44,91.09,38,91.05,33.77,96.21A22.07,22.07,0,0,0,29,109.37Z" transform="translate(-19.87 -30.79)" style="fill:#fff;stroke:#fff;stroke-miterlimit:10"/><path d="M160.45,110.88a33,33,0,0,1,5-17.73c7.46-11.74,20.91-12.67,29.89-2s8.44,30.78-.85,40.91c-8.67,9.45-21.61,8.35-28.7-2.4A33,33,0,0,1,160.45,110.88Zm32.68.6c0-5.43-1.09-10.27-4.19-14.48-4.58-6.22-11-6.21-15.72,0-5.83,7.73-5.63,21.2.42,28.8,4.28,5.38,10.31,5.5,14.68.22C191.87,121.72,193.07,116.62,193.13,111.48Z" transform="translate(-19.87 -30.79)" style="fill:#fff;stroke:#fff;stroke-miterlimit:10"/></svg>